<svg xmlns="http://www.w3.org/2000/svg" enable-background="new 0 0 64 64" viewBox="0 0 64 64"><path fill="#2b4a54" d="M63.94,24.98L64,17.32c0-0.66-0.25-1.28-0.71-1.75c-0.45-0.46-1.07-0.72-1.73-0.73L2.71,14.36
		c0,0-0.01,0-0.02,0c-1.34,0-2.45,1.09-2.46,2.45l-0.06,7.66c1.57,0.24,3.01,0.97,4.14,2.12c1.37,1.4,2.13,3.25,2.11,5.21
		c-0.03,3.7-2.8,6.74-6.36,7.22L0,46.68c0,0.66,0.25,1.28,0.71,1.75c0.45,0.46,1.07,0.72,1.73,0.73l58.84,0.46c0,0,0.01,0,0.02,0
		c1.34,0,2.45-1.09,2.46-2.45l0.06-7.67c-1.57-0.24-3.01-0.96-4.14-2.12c-1.37-1.39-2.13-3.24-2.11-5.2
		c0.01-1.96,0.79-3.8,2.19-5.17C60.91,25.89,62.37,25.18,63.94,24.98z M54.28,41.26c-0.01,1.04-0.42,2.02-1.17,2.76
		c-0.73,0.72-1.71,1.13-2.75,1.13h-0.03l-36.87-0.3c-1.04,0-2.02-0.42-2.76-1.17c-0.73-0.74-1.14-1.72-1.13-2.78l0.14-18.17
		c0.02-2.16,1.79-3.89,3.94-3.87l36.87,0.29c2.16,0.01,3.9,1.79,3.88,3.94L54.28,41.26z"/><path fill="#2b4a54" d="M50.53,21.22l-36.88-0.29h-0.01c-1.01,0-1.84,0.82-1.85,1.83l-0.14,18.17c0,0.5,0.19,0.96,0.53,1.31
		c0.35,0.35,0.82,0.55,1.3,0.55l36.88,0.3c0.44,0,0.96-0.19,1.31-0.54c0.35-0.34,0.55-0.81,0.55-1.3l0.14-18.17
		C52.37,22.05,51.54,21.23,50.53,21.22z M20.61,29.05c-0.01,0.08-0.02,0.14-0.04,0.2c-0.02,0.05-0.05,0.08-0.08,0.11
		c-0.02,0.02-0.06,0.03-0.09,0.03h-1.95v6.29c0,0.04-0.02,0.08-0.04,0.11c-0.03,0.03-0.07,0.05-0.13,0.07
		c-0.06,0.02-0.13,0.04-0.24,0.05c-0.1,0.01-0.24,0.02-0.38,0.02c-0.15,0-0.29-0.01-0.39-0.02c-0.09-0.01-0.18-0.03-0.24-0.05
		c-0.06-0.02-0.1-0.04-0.13-0.07c-0.02-0.03-0.04-0.07-0.04-0.11v-6.29H14.9c-0.04,0-0.07-0.01-0.1-0.03
		c-0.02-0.03-0.05-0.06-0.07-0.11c-0.02-0.05-0.03-0.11-0.04-0.2c-0.01-0.08-0.01-0.19-0.01-0.3c0-0.12,0-0.23,0.01-0.31
		c0.01-0.08,0.02-0.15,0.04-0.2c0.02-0.05,0.05-0.09,0.07-0.11c0.03-0.02,0.06-0.03,0.1-0.03h5.5c0.03,0,0.07,0.01,0.09,0.03
		c0.03,0.02,0.06,0.06,0.08,0.11c0.02,0.04,0.03,0.11,0.04,0.2c0.01,0.08,0.02,0.19,0.02,0.31C20.63,28.87,20.62,28.97,20.61,29.05z
		 M23.14,35.68c0,0.04-0.01,0.08-0.04,0.11c-0.02,0.03-0.06,0.05-0.12,0.07s-0.14,0.04-0.25,0.05c-0.09,0.01-0.23,0.02-0.38,0.02
		c-0.15,0-0.28-0.01-0.38-0.02c-0.1-0.01-0.19-0.03-0.25-0.05s-0.1-0.04-0.12-0.07c-0.03-0.03-0.04-0.07-0.04-0.11v-7.36
		c0-0.04,0.01-0.08,0.04-0.11c0.02-0.03,0.07-0.05,0.13-0.07c0.06-0.02,0.13-0.04,0.24-0.05c0.1-0.01,0.23-0.02,0.38-0.02
		c0.15,0,0.29,0.01,0.38,0.02c0.1,0.01,0.19,0.03,0.25,0.05c0.06,0.02,0.1,0.04,0.12,0.07c0.03,0.03,0.04,0.07,0.04,0.11V35.68z
		 M30.22,34.98c0,0.06-0.01,0.12-0.02,0.18c-0.01,0.05-0.03,0.09-0.05,0.13c-0.02,0.03-0.05,0.07-0.09,0.12
		c-0.05,0.04-0.13,0.1-0.26,0.18c-0.12,0.07-0.28,0.14-0.46,0.21c-0.19,0.07-0.39,0.12-0.63,0.17c-0.24,0.04-0.49,0.07-0.76,0.07
		c-0.53,0-1.01-0.08-1.45-0.25c-0.42-0.17-0.79-0.41-1.09-0.74c-0.3-0.33-0.54-0.73-0.69-1.23c-0.17-0.49-0.25-1.05-0.25-1.71
		c0-0.66,0.09-1.25,0.27-1.77c0.18-0.51,0.42-0.94,0.74-1.29c0.32-0.35,0.7-0.62,1.15-0.79c0.44-0.19,0.93-0.27,1.47-0.27
		c0.22,0,0.42,0.01,0.63,0.05c0.2,0.03,0.38,0.08,0.56,0.13c0.17,0.06,0.32,0.13,0.45,0.21c0.13,0.07,0.24,0.14,0.29,0.2
		c0.05,0.05,0.09,0.1,0.11,0.13c0.02,0.04,0.03,0.08,0.04,0.14c0.02,0.05,0.02,0.11,0.03,0.2c0.01,0.07,0.01,0.17,0.01,0.28
		c0,0.12,0,0.23-0.01,0.31c-0.01,0.08-0.02,0.15-0.04,0.21s-0.05,0.09-0.07,0.11c-0.03,0.02-0.06,0.04-0.1,0.04
		c-0.06,0-0.13-0.04-0.23-0.11c-0.09-0.06-0.21-0.14-0.36-0.23c-0.14-0.09-0.32-0.17-0.52-0.24c-0.21-0.07-0.45-0.1-0.73-0.1
		c-0.31,0-0.59,0.06-0.83,0.19c-0.25,0.12-0.45,0.31-0.62,0.54c-0.18,0.24-0.3,0.53-0.39,0.86c-0.08,0.33-0.13,0.71-0.13,1.13
		c0,0.46,0.05,0.86,0.14,1.2c0.09,0.33,0.23,0.61,0.4,0.83c0.18,0.22,0.39,0.38,0.63,0.49c0.25,0.1,0.53,0.15,0.84,0.15
		c0.29,0,0.53-0.03,0.73-0.09c0.21-0.07,0.38-0.14,0.53-0.23c0.14-0.07,0.27-0.14,0.36-0.22c0.09-0.06,0.17-0.09,0.22-0.09
		c0.04,0,0.07,0.01,0.1,0.02c0.02,0.02,0.04,0.05,0.06,0.1c0.01,0.04,0.02,0.11,0.03,0.2c0.01,0.09,0.01,0.21,0.01,0.35
		C30.23,34.82,30.23,34.91,30.22,34.98z M37.04,35.78c-0.02,0.03-0.06,0.06-0.12,0.08c-0.06,0.02-0.14,0.04-0.26,0.05
		c-0.1,0.01-0.25,0.02-0.41,0.02c-0.26,0-0.44-0.01-0.56-0.03c-0.11-0.02-0.2-0.05-0.25-0.09c-0.05-0.04-0.09-0.08-0.12-0.14
		l-2.35-3.7v3.7c0,0.04-0.01,0.08-0.03,0.11c-0.03,0.03-0.07,0.06-0.13,0.08c-0.05,0.02-0.13,0.04-0.24,0.05
		c-0.1,0.01-0.23,0.02-0.38,0.02s-0.29-0.01-0.38-0.02c-0.1-0.01-0.19-0.03-0.25-0.05c-0.06-0.02-0.1-0.05-0.13-0.08
		c-0.02-0.03-0.03-0.07-0.03-0.11v-7.35c0-0.04,0.01-0.08,0.03-0.11c0.03-0.03,0.07-0.05,0.13-0.07c0.06-0.02,0.14-0.04,0.25-0.05
		c0.09-0.01,0.23-0.02,0.38-0.02s0.28,0.01,0.38,0.02c0.1,0.01,0.19,0.03,0.24,0.05c0.06,0.02,0.1,0.04,0.13,0.07
		c0.02,0.03,0.03,0.07,0.03,0.11v3.32l2.28-3.31c0.03-0.05,0.06-0.09,0.1-0.13c0.04-0.03,0.09-0.06,0.17-0.07
		c0.06-0.02,0.14-0.04,0.24-0.05c0.1,0,0.24-0.01,0.39-0.01c0.15,0,0.29,0.01,0.39,0.02c0.1,0.01,0.2,0.03,0.26,0.05
		c0.06,0.02,0.1,0.05,0.12,0.08c0.02,0.03,0.04,0.06,0.04,0.1c0,0.07-0.02,0.14-0.06,0.22c-0.03,0.07-0.1,0.19-0.2,0.34l-2.15,2.81
		l2.33,3.52c0.09,0.17,0.14,0.28,0.17,0.33c0.01,0.05,0.02,0.09,0.02,0.13C37.07,35.71,37.06,35.75,37.04,35.78z M42.74,35.57
		c-0.01,0.08-0.03,0.14-0.05,0.2c-0.01,0.05-0.04,0.08-0.07,0.1c-0.03,0.02-0.06,0.03-0.09,0.03H38.6c-0.13,0-0.25-0.03-0.33-0.11
		c-0.09-0.08-0.13-0.21-0.13-0.38v-6.8c0-0.18,0.04-0.3,0.13-0.38c0.08-0.07,0.2-0.11,0.33-0.11h3.89c0.04,0,0.07,0.01,0.1,0.03
		c0.02,0.02,0.05,0.05,0.07,0.1c0.02,0.05,0.03,0.11,0.04,0.2c0.01,0.07,0.01,0.18,0.01,0.29c0,0.11,0,0.22-0.01,0.29
		c-0.01,0.08-0.02,0.14-0.04,0.2c-0.02,0.04-0.05,0.08-0.07,0.1c-0.03,0.02-0.06,0.03-0.1,0.03H39.7v1.91h2.36
		c0.03,0,0.06,0.01,0.09,0.03c0.03,0.02,0.06,0.05,0.08,0.1c0.02,0.04,0.03,0.1,0.04,0.19c0.01,0.07,0.02,0.18,0.02,0.29
		c0,0.11-0.01,0.21-0.02,0.29c-0.01,0.07-0.02,0.13-0.04,0.18c-0.02,0.05-0.05,0.08-0.08,0.1c-0.03,0.02-0.06,0.03-0.09,0.03H39.7
		v2.2h2.82c0.03,0,0.06,0.01,0.09,0.03c0.03,0.02,0.06,0.06,0.07,0.1c0.02,0.05,0.04,0.11,0.05,0.2c0.01,0.07,0.01,0.18,0.01,0.29
		C42.75,35.39,42.75,35.49,42.74,35.57z M49.32,29.05c-0.01,0.08-0.02,0.14-0.04,0.2c-0.02,0.05-0.05,0.08-0.08,0.11
		c-0.03,0.02-0.06,0.03-0.09,0.03h-1.95v6.29c0,0.04-0.02,0.08-0.04,0.11c-0.03,0.03-0.07,0.05-0.13,0.07s-0.14,0.04-0.24,0.05
		c-0.1,0.01-0.24,0.02-0.39,0.02c-0.14,0-0.28-0.01-0.38-0.02c-0.1-0.01-0.18-0.03-0.24-0.05s-0.1-0.04-0.13-0.07
		c-0.02-0.03-0.04-0.07-0.04-0.11v-6.29H43.6c-0.04,0-0.07-0.01-0.1-0.03c-0.02-0.03-0.05-0.06-0.07-0.11
		c-0.02-0.05-0.03-0.11-0.04-0.2s-0.02-0.19-0.02-0.3c0-0.12,0.01-0.23,0.02-0.31c0.01-0.08,0.02-0.15,0.04-0.2
		c0.02-0.05,0.05-0.09,0.07-0.11c0.03-0.02,0.06-0.03,0.1-0.03h5.5c0.03,0,0.06,0.01,0.09,0.03c0.03,0.02,0.06,0.06,0.08,0.11
		c0.02,0.04,0.03,0.11,0.04,0.2c0.01,0.08,0.01,0.19,0.01,0.31C49.33,28.87,49.33,28.97,49.32,29.05z"/></svg>