<svg xmlns="http://www.w3.org/2000/svg" viewBox="0 0 512 512"><g data-name="Layer 8"><polygon fill="#e8a851" fill-rule="evenodd" points="101.64 187.8 416.25 187.95 351.6 144.18 168.74 144.18 101.64 187.8"/><path fill="#e43c33" fill-rule="evenodd" d="M350.38,144.18c13.42-5.34,14-20.59,2.59-30.8,3,10.37-.16,17.68-12.36,20.73H177.13c-12.2-3.05-15.26-10.36-12.36-20.73-11.43,10.21-10.67,25.46,2.75,30.8,61.76-.61,121.09-.61,182.86,0Z"/><path fill="#2d415c" d="M350.38,146.46h0c-31.16-.31-61.06-.45-91.4-.45s-60.25.14-91.41.45a2.43,2.43,0,0,1-.87-.16c-6.56-2.61-10.79-7.5-11.9-13.76-1.27-7.18,1.9-15,8.48-20.87A2.29,2.29,0,0,1,167,114c-1.38,4.94-1.24,8.73.43,11.6s5,4.95,10,6.24H340.33c5.06-1.3,8.47-3.44,10.13-6.34s1.73-6.69.32-11.47a2.29,2.29,0,0,1,3.71-2.35c6.63,5.93,9.82,13.77,8.55,21-1.1,6.22-5.3,11.07-11.82,13.66A2.24,2.24,0,0,1,350.38,146.46ZM161.49,120.9a16.14,16.14,0,0,0-2.23,10.85c.8,4.52,3.88,8.11,8.7,10.15,31-.31,60.78-.46,91-.46s60,.15,91,.46c4.76-2,7.81-5.58,8.61-10.05A16.18,16.18,0,0,0,356.3,121a14.85,14.85,0,0,1-1.89,6.81c-2.33,4.07-6.78,7-13.24,8.57a2.6,2.6,0,0,1-.56.07H177.13a2.6,2.6,0,0,1-.56-.07c-6.37-1.6-10.78-4.44-13.12-8.45A15,15,0,0,1,161.49,120.9Z"/><path fill="#fed5db" fill-rule="evenodd" d="M261.31,354.79a37.67,37.67,0,1,0-37.82-37.67,37.75,37.75,0,0,0,37.82,37.67Z"/><path fill="#edabb6" fill-rule="evenodd" d="M261.31,279.45h.92a37.7,37.7,0,0,1-5.34,75H256a37.7,37.7,0,0,1,5.34-75Z"/><path fill="#edabb6" fill-rule="evenodd" d="M281.13,285.1h0s.31-17.85,27.15-14.79c0,0,4.88,21.95-14.94,27h0a38.86,38.86,0,0,0-12.21-12.2Z"/><path fill="#2d415c" d="M293.34,299.58a2.29,2.29,0,0,1-1.93-1.07A36.37,36.37,0,0,0,279.93,287a2.28,2.28,0,0,1-1.08-2c0-.18.57-17.39,23.57-17.39a55.37,55.37,0,0,1,6.12.37,2.29,2.29,0,0,1,2,1.77,33.2,33.2,0,0,1,0,12.56c-1.28,6.22-5.2,14.25-16.58,17.14A2.77,2.77,0,0,1,293.34,299.58Zm-9.8-15.64a41.09,41.09,0,0,1,10.78,10.7c13.15-4.31,12.62-17.58,12-22.24-1.36-.11-2.67-.17-3.91-.17C287,272.23,284.1,280.73,283.54,283.94Z"/><path fill="#edabb6" fill-rule="evenodd" d="M240.57,285.55h0s-.31-18-27.14-14.94c0,0-4.89,22,14.94,27.14h0a37.53,37.53,0,0,1,12.2-12.2Z"/><path fill="#2d415c" d="M228.37 300a2.3 2.3 0 0 1-.58-.07c-11.38-3-15.29-11-16.56-17.26a33.29 33.29 0 0 1 0-12.58 2.28 2.28 0 0 1 2-1.77 52.11 52.11 0 0 1 6.08-.37c23 0 23.59 17.36 23.6 17.53a2.3 2.3 0 0 1-1.07 2 35.12 35.12 0 0 0-11.46 11.45A2.28 2.28 0 0 1 228.37 300zm-13-27.32c-.61 4.65-1.1 18 12 22.37a40 40 0 0 1 10.78-10.67c-.59-3.23-3.6-11.87-18.9-11.87C218 272.54 216.73 272.6 215.39 272.71zM256.2 307.15a2.27 2.27 0 0 1-1.69-.76 6.59 6.59 0 0 0-4.78-2.39h-.1a7.31 7.31 0 0 0-5.2 2.45 2.28 2.28 0 1 1-3.29-3.16 11.82 11.82 0 0 1 8.67-3.85 11.13 11.13 0 0 1 8.09 3.91 2.27 2.27 0 0 1-1.7 3.8zM278.62 307.15a2.31 2.31 0 0 1-1.7-.76 6.55 6.55 0 0 0-4.77-2.39 7.27 7.27 0 0 0-5.3 2.45 2.28 2.28 0 0 1-3.29-3.16 11.8 11.8 0 0 1 8.49-3.85h.18a11.13 11.13 0 0 1 8.09 3.91 2.28 2.28 0 0 1-1.7 3.8z"/><path fill="#2d415c" d="M261.31,357.07a39.95,39.95,0,1,1,39.95-39.95A40.07,40.07,0,0,1,261.31,357.07Zm0-75.34a35.39,35.39,0,1,0,35.39,35.39A35.51,35.51,0,0,0,261.31,281.73Z"/><path fill="#e09ca8" fill-rule="evenodd" d="M284.8 327.65a8.2 8.2 0 0 0 8.23-8.24 8.3 8.3 0 0 0-8.23-8.23 8.4 8.4 0 0 0-8.24 8.23 8.3 8.3 0 0 0 8.24 8.24zM235.84 327.65a8.21 8.21 0 0 0 8.24-8.24 8.3 8.3 0 0 0-8.24-8.23 8.4 8.4 0 0 0-8.23 8.23 8.3 8.3 0 0 0 8.23 8.24z"/><path fill="#e393a0" fill-rule="evenodd" d="M260.7,340.91a17.92,17.92,0,1,0-18-17.84,18,18,0,0,0,18,17.84Z"/><path fill="#2d415c" fill-rule="evenodd" d="M252.62 328a5.19 5.19 0 1 0-5.34-5.18 5.24 5.24 0 0 0 5.34 5.18zM267.56 328a5.19 5.19 0 1 0-5.18-5.18 5.15 5.15 0 0 0 5.18 5.18z"/><path fill="#2d415c" d="M295.62,372.63H278.85a2.28,2.28,0,0,1,0-4.56h16.77a2.28,2.28,0,0,1,0,4.56Z"/><polygon fill="#e8be82" fill-rule="evenodd" points="329.79 144.33 393.07 187.95 413.51 187.95 415.49 187.95 396.13 174.38 351.6 144.18 330.55 144.18 329.79 144.33"/><polygon fill="#e8be82" fill-rule="evenodd" points="187.34 144.18 124.06 187.8 103.77 187.8 101.79 187.8 121.16 174.23 165.69 144.03 186.74 144.03 187.34 144.18"/><path fill="#2d415c" d="M416.26,190.23h0l-314.61-.15a2.28,2.28,0,0,1-1.25-4.19l67.1-43.62a2.29,2.29,0,0,1,1.25-.37H351.6a2.29,2.29,0,0,1,1.27.39l64.66,43.77a2.28,2.28,0,0,1-1.27,4.17Zm-306.94-4.71,299.49.15L350.9,146.46H169.41Z"/><path fill="#2d415c" d="M270 162.93H159.89a2.28 2.28 0 1 1 0-4.56H270a2.28 2.28 0 0 1 0 4.56zM293.8 162.93H281.59a2.28 2.28 0 1 1 0-4.56H293.8a2.28 2.28 0 0 1 0 4.56z"/><path fill="#e43c33" fill-rule="evenodd" d="M425.41,349.61H407a4.58,4.58,0,0,0-4.57,4.57v11.44a4.72,4.72,0,0,0,4.57,4.73h18.46a4.72,4.72,0,0,0,4.57-4.73V354.18a4.58,4.58,0,0,0-4.57-4.57Z"/><path fill="#2d415c" d="M425.41,372.63H407a7,7,0,0,1-6.85-7V354.18a6.85,6.85,0,0,1,6.85-6.85h18.46a6.85,6.85,0,0,1,6.85,6.85v11.44A7,7,0,0,1,425.41,372.63ZM407,351.89a2.3,2.3,0,0,0-2.29,2.29v11.44a2.44,2.44,0,0,0,2.29,2.45h18.46a2.44,2.44,0,0,0,2.29-2.45V354.18a2.3,2.3,0,0,0-2.29-2.29Z"/><rect width="18.46" height="96.69" x="406.95" y="257.49" fill="#e43c33"/><path fill="#2d415c" d="M425.41,356.46H407a2.28,2.28,0,0,1-2.28-2.28V257.49a2.28,2.28,0,0,1,2.28-2.28h18.46a2.28,2.28,0,0,1,2.28,2.28v96.69A2.28,2.28,0,0,1,425.41,356.46Zm-16.18-4.56h13.9V259.77h-13.9Z"/><path fill="#e43c33" fill-rule="evenodd" d="M344.73,349.61h-18.3a4.62,4.62,0,0,0-4.73,4.57v11.44a4.76,4.76,0,0,0,4.73,4.73h18.3a4.76,4.76,0,0,0,4.73-4.73V354.18a4.62,4.62,0,0,0-4.73-4.57Z"/><path fill="#2d415c" d="M344.73,372.63h-18.3a7,7,0,0,1-7-7V354.18a6.93,6.93,0,0,1,7-6.85h18.3a6.93,6.93,0,0,1,7,6.85v11.44A7,7,0,0,1,344.73,372.63Zm-18.3-20.74a2.35,2.35,0,0,0-2.45,2.29v11.44a2.48,2.48,0,0,0,2.45,2.45h18.3a2.48,2.48,0,0,0,2.45-2.45V354.18a2.35,2.35,0,0,0-2.45-2.29Z"/><rect width="18.3" height="96.69" x="326.43" y="257.49" fill="#e43c33"/><path fill="#2d415c" d="M344.73,356.46h-18.3a2.28,2.28,0,0,1-2.28-2.28V257.49a2.28,2.28,0,0,1,2.28-2.28h18.3a2.28,2.28,0,0,1,2.28,2.28v96.69A2.28,2.28,0,0,1,344.73,356.46Zm-16-4.56h13.74V259.77H328.71Z"/><path fill="#e43c33" fill-rule="evenodd" d="M393.23,247.89h46A9.31,9.31,0,0,1,430,257h-27.6a9.18,9.18,0,0,1-9.15-9.15Z"/><path fill="#2d415c" d="M430,259.32h-27.6A11.45,11.45,0,0,1,391,247.89a2.28,2.28,0,0,1,2.28-2.28h46a2.28,2.28,0,0,1,2.28,2.28A11.52,11.52,0,0,1,430,259.32Zm-34.08-9.15a6.87,6.87,0,0,0,6.48,4.58H430a7.12,7.12,0,0,0,6.61-4.58Z"/><path fill="#e43c33" fill-rule="evenodd" d="M310.26,247.58h46.22a9.32,9.32,0,0,1-9.31,9.15h-27.6a9.31,9.31,0,0,1-9.31-9.15Z"/><path fill="#2d415c" d="M347.17,259h-27.6A11.66,11.66,0,0,1,308,247.58a2.28,2.28,0,0,1,2.28-2.28h46.22a2.28,2.28,0,0,1,2.28,2.28A11.66,11.66,0,0,1,347.17,259ZM313,249.86a7.12,7.12,0,0,0,6.61,4.59h27.6a7.12,7.12,0,0,0,6.61-4.59Z"/><polygon fill="#e8a851" fill-rule="evenodd" points="471.01 247.89 307.98 247.89 319.42 206.41 411.53 206.41 471.01 247.89"/><path fill="#2d415c" d="M463.38,372.63H310.88a2.28,2.28,0,0,1,0-4.56h152.5a2.28,2.28,0,0,1,0,4.56Z"/><path fill="#e8a851" fill-rule="evenodd" d="M430,257H319.41a2.34,2.34,0,0,0-2.28,2.29V273.2a2.35,2.35,0,0,0,2.28,2.29H430a2.35,2.35,0,0,0,2.29-2.29V259.33A2.34,2.34,0,0,0,430,257Z"/><path fill="#2d415c" d="M430,277.77H319.41a4.63,4.63,0,0,1-4.56-4.57V259.33a4.63,4.63,0,0,1,4.56-4.58H430a4.64,4.64,0,0,1,4.57,4.58V273.2A4.63,4.63,0,0,1,430,277.77Zm-110.56-4.58,0,0H430l.05,0V259.33s0,0-.05,0H319.41s0,0,0,.05V273.2Z"/><path fill="#e43c33" fill-rule="evenodd" d="M93.86,349.61h18.3a4.58,4.58,0,0,1,4.57,4.57v11.44a4.72,4.72,0,0,1-4.57,4.73H93.86a4.76,4.76,0,0,1-4.73-4.73V354.18a4.62,4.62,0,0,1,4.73-4.57Z"/><path fill="#2d415c" d="M112.16,372.63H93.86a7,7,0,0,1-7-7V354.18a6.93,6.93,0,0,1,7-6.85h18.3a6.85,6.85,0,0,1,6.85,6.85v11.44A7,7,0,0,1,112.16,372.63Zm-18.3-20.74a2.35,2.35,0,0,0-2.45,2.29v11.44a2.48,2.48,0,0,0,2.45,2.45h18.3a2.44,2.44,0,0,0,2.29-2.45V354.18a2.3,2.3,0,0,0-2.29-2.29Z"/><rect width="18.45" height="96.69" x="93.71" y="257.49" fill="#e43c33"/><path fill="#2d415c" d="M112.16,356.46H93.71a2.28,2.28,0,0,1-2.28-2.28V257.49a2.28,2.28,0,0,1,2.28-2.28h18.45a2.28,2.28,0,0,1,2.28,2.28v96.69A2.28,2.28,0,0,1,112.16,356.46ZM96,351.9h13.89V259.77H96Z"/><path fill="#e43c33" fill-rule="evenodd" d="M174.38,349.61h18.3a4.62,4.62,0,0,1,4.73,4.57v11.44a4.75,4.75,0,0,1-4.73,4.73h-18.3a4.62,4.62,0,0,1-4.57-4.73V354.18a4.49,4.49,0,0,1,4.57-4.57Z"/><path fill="#2d415c" d="M192.68,372.63h-18.3a6.94,6.94,0,0,1-6.85-7V354.18a6.78,6.78,0,0,1,6.85-6.85h18.3a6.93,6.93,0,0,1,7,6.85v11.44A7,7,0,0,1,192.68,372.63Zm-18.3-20.74a2.21,2.21,0,0,0-2.29,2.29v11.44a2.35,2.35,0,0,0,2.29,2.45h18.3a2.48,2.48,0,0,0,2.45-2.45V354.18a2.35,2.35,0,0,0-2.45-2.29Z"/><rect width="18.46" height="96.69" x="174.38" y="257.49" fill="#e43c33"/><path fill="#2d415c" d="M192.84,356.46H174.38a2.28,2.28,0,0,1-2.28-2.28V257.49a2.28,2.28,0,0,1,2.28-2.28h18.46a2.28,2.28,0,0,1,2.28,2.28v96.69A2.28,2.28,0,0,1,192.84,356.46Zm-16.18-4.56h13.9V259.77h-13.9Z"/><path fill="#e43c33" fill-rule="evenodd" d="M126,247.89H80A9.18,9.18,0,0,0,89.13,257h27.6a9.32,9.32,0,0,0,9.31-9.15Z"/><path fill="#2d415c" d="M116.73,259.32H89.13A11.45,11.45,0,0,1,77.7,247.89,2.28,2.28,0,0,1,80,245.61H126a2.28,2.28,0,0,1,2.28,2.28A11.53,11.53,0,0,1,116.73,259.32Zm-34.08-9.15a6.87,6.87,0,0,0,6.48,4.58h27.6a7.12,7.12,0,0,0,6.61-4.58Z"/><path fill="#e43c33" fill-rule="evenodd" d="M208.85,247.58H162.79a9.18,9.18,0,0,0,9.15,9.15h27.6a9.31,9.31,0,0,0,9.31-9.15Z"/><path fill="#2d415c" d="M199.54,259h-27.6a11.45,11.45,0,0,1-11.43-11.43,2.28,2.28,0,0,1,2.28-2.28h46.06a2.29,2.29,0,0,1,2.28,2.28A11.53,11.53,0,0,1,199.54,259Zm-34.08-9.15a6.88,6.88,0,0,0,6.48,4.59h27.6a7.13,7.13,0,0,0,6.61-4.59Z"/><polygon fill="#e8a851" fill-rule="evenodd" points="48.1 247.89 211.13 247.89 199.7 206.41 107.58 206.41 48.1 247.89"/><path fill="#2d415c" d="M229.44 372.63H76.93a2.28 2.28 0 1 1 0-4.56H229.44a2.28 2.28 0 0 1 0 4.56zM60.91 372.63H44a2.28 2.28 0 1 1 0-4.56H60.91a2.28 2.28 0 0 1 0 4.56z"/><path fill="#e8a851" fill-rule="evenodd" d="M89.13,257H199.7a2.33,2.33,0,0,1,2.28,2.29V273.2a2.34,2.34,0,0,1-2.28,2.29H89.13a2.35,2.35,0,0,1-2.29-2.29V259.33A2.34,2.34,0,0,1,89.13,257Z"/><path fill="#2d415c" d="M199.7,277.77H89.13a4.63,4.63,0,0,1-4.57-4.57V259.33a4.64,4.64,0,0,1,4.57-4.58H199.7a4.63,4.63,0,0,1,4.56,4.58V273.2A4.63,4.63,0,0,1,199.7,277.77ZM89.13,273.19l0,0h110.5l0,0V259.33s0,0,0,0H89.13s0,0,0,.05V273.2Z"/><path fill="#e8be82" fill-rule="evenodd" d="M72.51,247.89c16.16-15.1,36.14-33.55,45.75-41.48H107.58L48.1,247.89Z"/><path fill="#2d415c" d="M211.14,250.17H48.1A2.28,2.28,0,0,1,46.8,246l59.48-41.48a2.25,2.25,0,0,1,1.3-.41H199.7a2.29,2.29,0,0,1,2.2,1.67l11.43,41.48a2.28,2.28,0,0,1-2.19,2.89ZM55.36,245.61H208.14L198,208.69H108.3Z"/><path fill="#e43c33" fill-rule="evenodd" d="M199.7,206.41l-88,.91c-13.42-5.49-14-20.74-2.59-30.81-3,10.22.15,17.69,12.2,20.75H199.7Z"/><path fill="#2d415c" d="M111.7,209.6a2.27,2.27,0,0,1-.86-.17c-6.57-2.69-10.77-7.63-11.83-13.91-1.21-7.18,2-14.92,8.59-20.72a2.28,2.28,0,0,1,3.69,2.36c-1.41,4.73-1.3,8.58.33,11.45s5,5.06,10,6.36h78.1a2.29,2.29,0,0,1,2.28,2.29v9.15a2.29,2.29,0,0,1-2.26,2.28l-88,.91ZM105.77,184a16,16,0,0,0-2.26,10.73c.76,4.54,3.82,8.18,8.64,10.27l85.27-.88v-4.61H121.31a2.68,2.68,0,0,1-.56-.07c-6.36-1.62-10.77-4.51-13.09-8.61A14.88,14.88,0,0,1,105.77,184Z"/><path fill="#e43c33" fill-rule="evenodd" d="M197.56,188H154.25a8.66,8.66,0,0,0,8.7,8.54h25.92a8.65,8.65,0,0,0,8.69-8.54Z"/><path fill="#2d415c" d="M188.87,198.77H163A10.91,10.91,0,0,1,152,188a2.28,2.28,0,0,1,2.28-2.28h43.31a2.28,2.28,0,0,1,2.28,2.28A10.9,10.9,0,0,1,188.87,198.77ZM157,190.23a6.43,6.43,0,0,0,6,4h25.92a6.42,6.42,0,0,0,6-4Z"/><path fill="#e8be82" fill-rule="evenodd" d="M401.47,206.41c7.92,8.54,30.19,28.51,44.68,41.48H471l-59.48-41.48Z"/><path fill="#2d415c" d="M471,250.17H308a2.28,2.28,0,0,1-2.2-2.89l11.44-41.48a2.27,2.27,0,0,1,2.19-1.67h92.12a2.25,2.25,0,0,1,1.3.41l59.34,41.38a2.28,2.28,0,0,1-1.15,4.25Zm-160-4.56H463.75l-52.94-36.92H321.15Z"/><path fill="#e43c33" fill-rule="evenodd" d="M319.41,206.41l88,.91c13.42-5.49,14-20.74,2.75-30.81,2.9,10.22-.16,17.69-12.36,20.75H319.41Z"/><path fill="#2d415c" d="M407.41,209.6h0l-88-.91a2.29,2.29,0,0,1-2.26-2.28v-9.15a2.29,2.29,0,0,1,2.28-2.29h78.11c5-1.28,8.34-3.4,10-6.29s1.8-6.74.43-11.55a2.28,2.28,0,0,1,3.71-2.32c6.52,5.81,9.67,13.56,8.44,20.73-1.08,6.27-5.28,11.21-11.83,13.89A2.36,2.36,0,0,1,407.41,209.6Zm-85.71-5.45L407,205c4.81-2.09,7.88-5.72,8.66-10.27a16.13,16.13,0,0,0-2.2-10.73,15,15,0,0,1-1.94,6.93c-2.35,4-6.76,6.92-13.12,8.51a2.6,2.6,0,0,1-.56.07H321.7Z"/><path fill="#e43c33" fill-rule="evenodd" d="M320.79,188H364a8.53,8.53,0,0,1-8.55,8.54H329.48a8.65,8.65,0,0,1-8.69-8.54Z"/><path fill="#2d415c" d="M355.4 198.77H329.48a10.9 10.9 0 0 1-11-10.82 2.28 2.28 0 0 1 2.28-2.28H364a2.28 2.28 0 0 1 2.28 2.28A10.84 10.84 0 0 1 355.4 198.77zm-31.89-8.54a6.41 6.41 0 0 0 6 4H355.4a6.28 6.28 0 0 0 5.84-4zM178.5 220.12H112.16a2.28 2.28 0 0 1 0-4.56H178.5a2.28 2.28 0 0 1 0 4.56zM192.68 220.12h-7.32a2.28 2.28 0 0 1 0-4.56h7.32a2.28 2.28 0 0 1 0 4.56zM392 220.12H325.67a2.28 2.28 0 0 1 0-4.56H392a2.28 2.28 0 1 1 0 4.56zM406.19 220.12h-7.32a2.28 2.28 0 0 1 0-4.56h7.32a2.28 2.28 0 1 1 0 4.56zM164.47 268.62H98.13a2.28 2.28 0 0 1 0-4.56h66.34a2.28 2.28 0 1 1 0 4.56zM181.25 268.62h-7.32a2.28 2.28 0 1 1 0-4.56h7.32a2.28 2.28 0 1 1 0 4.56zM398.41 268.62H332.07a2.28 2.28 0 1 1 0-4.56h66.34a2.28 2.28 0 1 1 0 4.56zM415.19 268.62h-7.32a2.28 2.28 0 1 1 0-4.56h7.32a2.28 2.28 0 1 1 0 4.56z"/><path fill="#e43c33" d="M365.62,94.15H345.19a2.28,2.28,0,1,1,0-4.56h20.43a2.28,2.28,0,0,1,0,4.56Z"/><path fill="#e43c33" d="M355.4,104.37a2.29,2.29,0,0,1-2.28-2.28V81.65a2.29,2.29,0,0,1,4.57,0v20.44A2.29,2.29,0,0,1,355.4,104.37Z"/><path fill="#e8a851" d="M443 217.68a2.28 2.28 0 0 1-1.62-3.89l7.32-7.32a2.28 2.28 0 1 1 3.23 3.22L444.56 217A2.26 2.26 0 0 1 443 217.68zM450.27 200.6a2.25 2.25 0 0 1-1.6-.65l-7.32-7.17a2.28 2.28 0 0 1 3.19-3.26l7.32 7.17a2.28 2.28 0 0 1-1.59 3.91zM460 200.6a2.28 2.28 0 0 1-1.62-3.89l7.17-7.17a2.28 2.28 0 1 1 3.23 3.22l-7.17 7.17A2.26 2.26 0 0 1 460 200.6zM467.19 217.68a2.3 2.3 0 0 1-1.63-.68l-7.16-7.32a2.28 2.28 0 1 1 3.26-3.19l7.16 7.32a2.28 2.28 0 0 1 0 3.22A2.25 2.25 0 0 1 467.19 217.68zM47.8 414.57a2.25 2.25 0 0 1-1.61-.67 2.28 2.28 0 0 1 0-3.22l7.32-7.33a2.28 2.28 0 0 1 3.23 3.23l-7.33 7.32A2.25 2.25 0 0 1 47.8 414.57zM55.12 397.49a2.28 2.28 0 0 1-1.59-.65l-7.33-7.17a2.28 2.28 0 0 1 3.2-3.26l7.32 7.17a2.28 2.28 0 0 1 0 3.22A2.24 2.24 0 0 1 55.12 397.49zM64.89 397.49a2.28 2.28 0 0 1-1.62-3.89l7.17-7.17a2.28 2.28 0 1 1 3.22 3.22l-7.16 7.17A2.26 2.26 0 0 1 64.89 397.49zM72.05 414.57a2.3 2.3 0 0 1-1.63-.68l-7.16-7.33a2.28 2.28 0 0 1 3.26-3.19l7.16 7.33a2.28 2.28 0 0 1 0 3.22A2.31 2.31 0 0 1 72.05 414.57z"/><path fill="#e43c33" d="M444.32,398H424a2.28,2.28,0,0,1,0-4.56h20.29a2.28,2.28,0,0,1,0,4.56Z"/><path fill="#e43c33" d="M434.1,408.16a2.28,2.28,0,0,1-2.28-2.28V385.6a2.28,2.28,0,1,1,4.56,0v20.28A2.28,2.28,0,0,1,434.1,408.16Z"/><path fill="#e8a851" d="M455.76,345.94A13,13,0,1,1,468.71,333,12.9,12.9,0,0,1,455.76,345.94Zm0-21.35a8.4,8.4,0,1,0,8.39,8.4A8.44,8.44,0,0,0,455.76,324.59Z"/><path fill="#2d415c" fill-rule="evenodd" d="M96.6,159a10.68,10.68,0,0,0,10.53-10.67A10.54,10.54,0,0,0,96.6,137.78,10.67,10.67,0,0,0,85.93,148.3,10.8,10.8,0,0,0,96.6,159Z"/><path fill="#e8a851" d="M235.54,115.5a12.88,12.88,0,1,1,0-25.75,12.88,12.88,0,0,1,0,25.75Zm0-21.19a8.32,8.32,0,1,0,0,16.63,8.43,8.43,0,0,0,8.24-8.39A8.25,8.25,0,0,0,235.54,94.31Z"/></g></svg>