<svg xmlns="http://www.w3.org/2000/svg" width="16" height="16" viewBox="0 0 16 16"><g transform="translate(0 -1036.362)"><path fill="#fff" style="isolation:auto;mix-blend-mode:normal" d="M13.000005 1048.3622a1.5 1.5 0 0 1-1.5 1.5 1.5 1.5 0 0 1-1.5-1.5 1.5 1.5 0 0 1 1.5-1.5 1.5 1.5 0 0 1 1.5 1.5zM13.000005 1040.3622a1.5 1.5 0 0 1-1.5 1.5 1.5 1.5 0 0 1-1.5-1.5 1.5 1.5 0 0 1 1.5-1.5 1.5 1.5 0 0 1 1.5 1.5z" color="#000" overflow="visible"/><path fill="#c2e4f8" style="isolation:auto;mix-blend-mode:normal" d="m 6.5000048,1044.3622 a 2,2 0 0 1 -2,2 2,2 0 0 1 -2,-2 2,2 0 0 1 2,-2 2,2 0 0 1 2,2 z" color="#000" overflow="visible"/><path fill="#249fe6" style="line-height:normal;text-indent:0;text-align:start;text-decoration-line:none;text-decoration-style:solid;text-decoration-color:#000;text-transform:none;block-progression:tb;isolation:auto;mix-blend-mode:normal" d="M4.5 1041.8613c-1.3747896 0-2.5 1.1252-2.5 2.5 0 1.3748 1.1252104 2.5 2.5 2.5 1.3747896 0 2.5-1.1252 2.5-2.5 0-1.3748-1.1252104-2.5-2.5-2.5zm0 1c.8343494 0 1.5.6657 1.5 1.5 0 .8344-.6656506 1.5-1.5 1.5-.8343494 0-1.5-.6656-1.5-1.5 0-.8343.6656506-1.5 1.5-1.5zM11.5 1046.3613c-1.098647 0-2 .9014-2 2 0 1.0987.901353 2 2 2 1.098647 0 2-.9013 2-2 0-1.0986-.901353-2-2-2zm0 1c.558207 0 1 .4418 1 1 0 .5582-.441793 1-1 1-.558207 0-1-.4418-1-1 0-.5582.441793-1 1-1z" color="#000" font-family="sans-serif" font-weight="400" overflow="visible"/><path fill="#249fe6" fill-rule="evenodd" style="line-height:normal;text-indent:0;text-align:start;text-decoration-line:none;text-decoration-style:solid;text-decoration-color:#000;text-transform:none;block-progression:tb;isolation:auto;mix-blend-mode:normal" d="M6.4121094 1044.8652l-.5.8653 3.6875 2.1289.4999996-.8653-3.6874996-2.1289zM9.5996094 1040.8652l-3.6875 2.1289.5.8653 3.6874996-2.1289-.4999996-.8653z" color="#000" font-family="sans-serif" font-weight="400" overflow="visible"/><path fill="#249fe6" style="line-height:normal;text-indent:0;text-align:start;text-decoration-line:none;text-decoration-style:solid;text-decoration-color:#000;text-transform:none;block-progression:tb;isolation:auto;mix-blend-mode:normal" d="m 11.5,1038.3613 c -1.098647,0 -2,0.9014 -2,2 0,1.0987 0.901353,2 2,2 1.098647,0 2,-0.9013 2,-2 0,-1.0986 -0.901353,-2 -2,-2 z m 0,1 c 0.558207,0 1,0.4418 1,1 0,0.5582 -0.441793,1 -1,1 -0.558207,0 -1,-0.4418 -1,-1 0,-0.5582 0.441793,-1 1,-1 z" color="#000" font-family="sans-serif" font-weight="400" overflow="visible"/></g></svg>