<svg xmlns="http://www.w3.org/2000/svg" data-name="Layer 1" viewBox="0 0 64 64"><circle cx="51" cy="13" r="10" fill="#11bf08"/><polygon fill="#0ba5ce" points="32 3 33.85 6.95 38 7.58 35 10.66 35.71 15 32 12.95 28.29 15 29 10.66 26 7.58 30.15 6.95 32 3"/><polygon fill="#f40808" points="18 6 19.85 9.95 24 10.58 21 13.66 21.71 18 18 15.95 14.29 18 15 13.66 12 10.58 16.15 9.95 18 6"/><polygon fill="#f4ee21" points="9 18 10.54 21.29 14 21.82 11.5 24.38 12.09 28 9 26.29 5.91 28 6.5 24.38 4 21.82 7.46 21.29 9 18"/><path fill="#686363" d="M53,50.9a4.71,4.71,0,0,1-1,.1,5,5,0,0,1,0-10,4.71,4.71,0,0,1,1,.1V31H3V41.1A4.71,4.71,0,0,1,4,41,5,5,0,0,1,4,51a4.71,4.71,0,0,1-1-.1V61H53Z"/><path d="M3,62H53a1,1,0,0,0,1-1V50.9a1,1,0,0,0-1.21-1A3.84,3.84,0,0,1,52,50a4,4,0,0,1,0-8,3.84,3.84,0,0,1,.79.08,1,1,0,0,0,1.21-1V31a1,1,0,0,0-1-1H3a1,1,0,0,0-1,1V41.1a1,1,0,0,0,1.21,1A3.84,3.84,0,0,1,4,42a4,4,0,0,1,0,8,3.84,3.84,0,0,1-.79-.08A1,1,0,0,0,2,50.9V61A1,1,0,0,0,3,62ZM4,52A6,6,0,0,0,4,40V32H52v8a6,6,0,0,0,0,12v8H4Z"/><rect width="3" height="2" x="6" y="34"/><rect width="3" height="2" x="10" y="34"/><rect width="3" height="2" x="14" y="34"/><rect width="3" height="2" x="18" y="34"/><rect width="3" height="2" x="22" y="34"/><rect width="3" height="2" x="26" y="34"/><rect width="3" height="2" x="30" y="34"/><rect width="3" height="2" x="34" y="34"/><rect width="3" height="2" x="38" y="34"/><rect width="3" height="2" x="42" y="34"/><rect width="3" height="2" x="46" y="34"/><rect width="3" height="2" x="6" y="56"/><rect width="3" height="2" x="10" y="56"/><rect width="3" height="2" x="14" y="56"/><rect width="3" height="2" x="18" y="56"/><rect width="3" height="2" x="22" y="56"/><rect width="3" height="2" x="26" y="56"/><rect width="3" height="2" x="30" y="56"/><rect width="3" height="2" x="34" y="56"/><rect width="3" height="2" x="38" y="56"/><rect width="3" height="2" x="42" y="56"/><rect width="3" height="2" x="46" y="56"/><rect width="17.2" height="2" x="11.4" y="46.17" transform="rotate(-45.87 19.995 47.178)"/><path d="M17 46a3 3 0 1 0-3-3A3 3 0 0 0 17 46zm0-4a1 1 0 1 1-1 1A1 1 0 0 1 17 42zM27 50a3 3 0 1 0-3 3A3 3 0 0 0 27 50zm-4 0a1 1 0 1 1 1 1A1 1 0 0 1 23 50zM15 21.5a1 1 0 0 0-.8-.67l-2.93-.45-1.31-2.8a1 1 0 0 0-1.82 0l-1.31 2.8-2.93.45a1 1 0 0 0-.8.67 1 1 0 0 0 .23 1l2.15 2.2-.51 3.12a1 1 0 0 0 1.47 1L9 27.43l2.61 1.45a1 1 0 0 0 .48.12 1 1 0 0 0 .58-.18 1 1 0 0 0 .41-1l-.51-3.12 2.15-2.2A1 1 0 0 0 15 21.5zm-4.17 2.18a1 1 0 0 0-.27.86l.26 1.59-1.29-.71a1 1 0 0 0-1 0l-1.29.71.26-1.59a1 1 0 0 0-.27-.86L6.08 22.51l1.53-.23a1 1 0 0 0 .75-.56L9 20.35l.64 1.37a1 1 0 0 0 .75.56l1.53.23zM25 10.27a1 1 0 0 0-.8-.68L20.53 9 18.91 5.58a1 1 0 0 0-1.82 0L15.47 9l-3.62.55a1 1 0 0 0-.8.68 1 1 0 0 0 .23 1L13.93 14l-.62 3.84a1 1 0 0 0 .41 1 1 1 0 0 0 1.06.06L18 17.09l3.22 1.79a1.07 1.07 0 0 0 .49.12 1 1 0 0 0 .57-.18 1 1 0 0 0 .41-1L22.07 14l2.65-2.72A1 1 0 0 0 25 10.27zM20.28 13a1 1 0 0 0-.27.86l.38 2.31-1.91-1a1 1 0 0 0-1 0l-1.91 1L16 13.82a1 1 0 0 0-.27-.86l-1.65-1.68 2.23-.34a1 1 0 0 0 .75-.56l.95-2 .95 2a1 1 0 0 0 .75.56l2.23.34zM32.91 2.58a1 1 0 0 0-1.82 0L29.47 6l-3.62.55a1 1 0 0 0-.8.68 1 1 0 0 0 .23 1L27.93 11l-.62 3.84a1 1 0 0 0 .41 1 1 1 0 0 0 1.06.06L32 14.09l3.22 1.79a1.07 1.07 0 0 0 .49.12 1 1 0 0 0 .57-.18 1 1 0 0 0 .41-1L36.07 11l2.65-2.72a1 1 0 0 0 .23-1 1 1 0 0 0-.8-.68L34.53 6zM34.28 10a1 1 0 0 0-.27.86l.38 2.31-1.91-1.05a1 1 0 0 0-1 0l-1.91 1.05L30 10.82a1 1 0 0 0-.27-.86L28.07 8.28l2.23-.34a1 1 0 0 0 .75-.56l.95-2 1 2a1 1 0 0 0 .75.56l2.23.34z"/><rect width="13" height="2" x="31" y="40"/><rect width="13" height="2" x="31" y="43"/><rect width="13" height="2" x="31" y="46"/><rect width="13" height="2" x="31" y="49"/><rect width="13" height="2" x="31" y="52"/><path d="M51,2A11,11,0,1,0,62,13,11,11,0,0,0,51,2ZM49,16H47a4,4,0,0,0,3,3.86v2.08A9,9,0,0,1,50,4.06V6.14A4,4,0,0,0,51,14a2,2,0,1,1-2,2Zm3,5.94V19.86A4,4,0,0,0,51,12a2,2,0,1,1,2-2h2a4,4,0,0,0-3-3.86V4.06a9,9,0,0,1,0,17.88Z"/></svg>