<svg xmlns="http://www.w3.org/2000/svg" viewBox="0 0 64 64"><path fill="#f0f3f6" d="M25.87,46.33H38.13a2.78,2.78,0,1,1,0,5.55H25.87a2.78,2.78,0,1,1,0-5.55Z"/><path fill="#7a8892" d="M20.26,8a4.48,4.48,0,0,0-4.49,4.49v39A4.48,4.48,0,0,0,20.26,56H43.74a4.48,4.48,0,0,0,4.49-4.49v-39A4.48,4.48,0,0,0,43.74,8ZM32,13.4a.94.94,0,0,1,.86.56L34.21,17l3.35-.37a.94.94,0,0,1,.85,1.49l-2,2.71,2,2.71a.94.94,0,0,1-.85,1.49l-3.35-.37-1.35,3.08a.94.94,0,0,1-1.72,0L29.79,24.7l-3.35.37a.94.94,0,0,1-.85-1.49l2-2.71-2-2.71a.94.94,0,0,1,.85-1.49l3.35.37L31.14,14A.94.94,0,0,1,32,13.4Zm.65,19.36a1,1,0,0,1,1,1v5.58a1,1,0,0,1-2,0V33.76A1,1,0,0,1,32.65,32.76Zm3.65,0h1.91a2.71,2.71,0,0,1,0,5.42H37.3v1.16a1,1,0,0,1-2,0V33.76A1,1,0,0,1,36.3,32.76Zm-6.9,0a.85.85,0,0,1,.38.09,1,1,0,0,1,.48,1.33h0l-2.64,5.58a1,1,0,0,1-1.8,0l-2.64-5.58a1,1,0,0,1,.48-1.33h0a.9.9,0,0,1,.51-.09.7.7,0,0,1,.25,0,1,1,0,0,1,.57.52L26.72,37l1.73-3.66a1,1,0,0,1,.95-.57Zm7.9,2v1.42h.91a.71.71,0,0,0,0-1.42Zm-7.57,7.12h4.54a1,1,0,0,1,0,2H29.73a1,1,0,1,1,0-2Z"/><path fill="#f0e586" d="M25.87 46.33H38.13a2.78 2.78 0 110 5.55H25.87a2.78 2.78 0 110-5.55zM32 13.4a.94.94 0 00-.86.56L29.79 17l-3.35-.37a.94.94 0 00-.85 1.49l2 2.71-2 2.71a.94.94 0 00.85 1.49l3.35-.37 1.35 3.08a.94.94 0 001.72 0l1.35-3.08 3.35.37a.94.94 0 00.85-1.49l-2-2.71 2-2.71a.94.94 0 00-.85-1.49L34.21 17 32.86 14A.94.94 0 0032 13.4z"/><path fill="#f0f3f6" d="M24.42 32.82a1 1 0 00-1.24 1.37h0l2.64 5.58a1 1 0 001.33.48 1 1 0 00.47-.48l2.64-5.58a1 1 0 00-.48-1.33h0a1 1 0 00-1.33.48L26.72 37 25 33.34A1 1 0 0024.42 32.82zM32.65 32.76a1 1 0 00-1 1v5.58a1 1 0 002 0V33.76A1 1 0 0032.65 32.76zM36.3 32.76a1 1 0 00-1 1v5.58a1 1 0 002 0V38.18h.91a2.71 2.71 0 000-5.42zm1 2h.91a.71.71 0 010 1.42H37.3zM29.73 41.88a1 1 0 100 2h4.54a1 1 0 000-2z"/></svg>