<svg xmlns="http://www.w3.org/2000/svg" data-name="Layer 1" viewBox="0 0 64 64"><path fill="none" stroke="#078cd6" stroke-linecap="round" stroke-linejoin="round" stroke-width="2" d="M54.57 40.19A24 24 0 019.38 40M9.43 23.78A24 24 0 0154.66 24"/><path fill="none" stroke="#078cd6" stroke-linecap="round" stroke-linejoin="round" stroke-width="2" d="M42.32 40.33C40.77 49.48 36.73 56 32 56s-8.82-6.61-10.35-15.86M21.6 24C23.09 14.6 27.18 8 32 8s8.85 6.66 10.37 16"/><rect width="56" height="16" x="4" y="24" fill="none" stroke="#078cd6" stroke-linecap="round" stroke-linejoin="round" stroke-width="2" rx="2" ry="2"/><polyline fill="none" stroke="#078cd6" stroke-linecap="round" stroke-linejoin="round" stroke-width="2" points="27.07 29.64 29.53 35.19 32 30.8 34.47 35.19 36.93 29.64"/><polyline fill="none" stroke="#078cd6" stroke-linecap="round" stroke-linejoin="round" stroke-width="2" points="13.07 29.64 15.53 35.19 18 30.8 20.47 35.19 22.93 29.64"/><polyline fill="none" stroke="#078cd6" stroke-linecap="round" stroke-linejoin="round" stroke-width="2" points="41.07 29.64 43.53 35.19 46 30.8 48.47 35.19 50.93 29.64"/></svg>